<svg width="71" height="40" viewBox="0 0 71 40" fill="none" xmlns="http://www.w3.org/2000/svg">
<g clip-path="url(#clip0_24_33)">
<g clip-path="url(#clip1_24_33)">
<path fill-rule="evenodd" clip-rule="evenodd" d="M8.97116 16.7492C7.48347 19.155 7.56427 23.9614 6.98915 27.3155C6.26194 31.5637 3.60976 33.8341 0.620117 35.6277C1.51368 31.4499 2.27417 27.2721 2.57836 23.0944C2.94909 17.9304 2.29318 18.2664 6.22392 14.5601C11.7327 9.35276 20.6731 5.12624 34.0195 2.15142C45.6929 -0.0485447 58.0175 -0.30322 70.6225 0.249479C66.3923 10.0518 52.8795 10.8754 36.3865 8.81632C27.7788 8.92469 19.7748 6.17203 8.97116 16.7492ZM48.5638 31.8184C30.0508 42.8615 11.476 19.4422 5.0024 35.5464C15.0027 25.6249 29.1429 52.7938 48.5638 31.8184ZM60.394 18.0171C39.053 32.7558 15.2309 13.7256 8.5529 28.0904C24.7702 21.3984 45.46 43.0078 60.394 18.0171ZM64.358 10.0084C45.6121 19.5506 16.6235 2.41151 9.38943 22.1407C24.1523 12.3438 49.5334 29.9327 64.358 10.0084Z" fill="#F500A2"/>
</g>
</g>
<defs>
<clipPath id="clip0_24_33">
<rect width="70" height="40" fill="white" transform="translate(0.620117)"/>
</clipPath>
<clipPath id="clip1_24_33">
<rect width="70" height="40" fill="white" transform="translate(0.620117)"/>
</clipPath>
</defs>
</svg>
